<?xml version="1.0" encoding="utf-8"?>

<!DOCTYPE svg PUBLIC "-//W3C//DTD SVG 1.1//EN" "http://www.w3.org/Graphics/SVG/1.1/DTD/svg11.dtd">
<svg version="1.1" id="Capa_1" xmlns="http://www.w3.org/2000/svg" xmlns:xlink="http://www.w3.org/1999/xlink" x="0px" y="0px"
	 width="1000px" height="1000px" viewBox="0 0 1000 1000" enable-background="new 0 0 1000 1000" xml:space="preserve">
<g>
	<path fill="#232323" d="M939,333c0,18.7-15.3,34-34,34H86c-18.7,0-34-15.3-34-34v-43c0-18.7,15.3-34,34-34h819
		c18.7,0,34,15.3,34,34V333z"/>
</g>
<g>
	<path fill="#232323" d="M718,509c0,18.7-15.3,34-34,34H309c-18.7,0-34-15.3-34-34v-43c0-18.7,15.3-34,34-34h375
		c18.7,0,34,15.3,34,34V509z"/>
</g>
<g>
	<path fill="#232323" d="M940,697c0,18.7-15.3,34-34,34H87c-18.7,0-34-15.3-34-34v-43c0-18.7,15.3-34,34-34h819
		c18.7,0,34,15.3,34,34V697z"/>
</g>
</svg>
