<?xml version="1.0" encoding="utf-8"?>
<svg version="1.1" id="Capa_1" xmlns="http://www.w3.org/2000/svg" xmlns:xlink="http://www.w3.org/1999/xlink" x="0px" y="0px"
	 width="1000px" height="1000px" viewBox="0 0 1000 1000" enable-background="new 0 0 1000 1000" xml:space="preserve">
<g>
	<path fill="#FFFFFF" d="M390.761,601.716"/>
	<g>
		<path fill="#FFFFFF" d="M390.761,619.08c9.466,0,17.365-7.898,17.365-17.364s-7.899-17.364-17.365-17.364
			s-17.365,7.898-17.365,17.364S381.295,619.08,390.761,619.08L390.761,619.08z"/>
	</g>
</g>
<g>
	<polyline fill="#FFFFFF" points="145,871 243.109,764.781 668.605,626.838 590.086,600.585 788.225,452.461 846.349,293.783 
		787.228,110.505 603.586,150.608 440.486,312.812 433.674,261.211 262.217,508.52 243.109,764.781 	"/>
	<g>
		<path fill="#FFFFFF" d="M157.279,883.278c32.132-34.788,64.265-69.576,96.397-104.365c0.571-0.617,1.142-1.235,1.712-1.854
			c-2.554,1.489-5.108,2.978-7.663,4.466c30.29-9.819,60.58-19.64,90.871-29.459c60.824-19.72,121.648-39.438,182.473-59.157
			c46.289-15.007,92.579-30.014,138.868-45.021c4.429-1.436,8.856-2.871,13.284-4.307c16.652-5.398,16.423-27.997,0-33.488
			c-26.173-8.751-52.347-17.502-78.52-26.253c1.383,10.579,2.766,21.158,4.148,31.738c36.744-27.47,73.488-54.938,110.233-82.408
			c22.837-17.072,45.674-34.145,68.511-51.217c5.799-4.335,11.598-8.67,17.397-13.006c4.34-3.245,7.976-6.407,9.977-11.871
			c0.526-1.437,1.053-2.873,1.579-4.309c18.148-49.545,36.297-99.091,54.445-148.637c2.131-5.816,3.389-10.969,1.367-17.238
			c-2.59-8.027-5.179-16.054-7.769-24.081c-9.502-29.456-19.004-58.912-28.505-88.368c-7.372-22.852-14.743-45.704-22.115-68.556
			c-3.022-9.372-11.802-14.216-21.36-12.128c-48.696,10.634-97.393,21.268-146.09,31.902c-10.331,2.256-20.663,4.512-30.994,6.769
			c-5.864,1.28-10.636,2.333-15.234,6.906c-13.896,13.82-27.794,27.641-41.69,41.461c-38.977,38.763-77.953,77.525-116.93,116.287
			c-1.155,1.149-2.311,2.298-3.466,3.447c9.881,4.093,19.762,8.186,29.644,12.279c-2.271-17.2-4.541-34.4-6.812-51.601
			c-1.031-7.808-4.56-14.492-12.749-16.745c-7.954-2.188-15.127,1.515-19.61,7.98c-23.667,34.136-47.333,68.273-71,102.41
			c-31.391,45.277-62.781,90.555-94.172,135.832c-2.092,3.017-4.184,6.035-6.275,9.052c-3.058,4.412-2.727,13.418-3.13,18.83
			c-1.794,24.067-3.589,48.134-5.383,72.201c-4.134,55.441-8.268,110.883-12.402,166.324c-0.191,2.563-0.382,5.124-0.573,7.686
			c-0.705,9.451,8.432,17.364,17.365,17.364c9.998,0,16.661-7.929,17.365-17.364c3.358-45.033,6.716-90.065,10.073-135.099
			c3.012-40.388,6.023-80.775,9.035-121.163c-0.791,2.922-1.581,5.843-2.371,8.765c23.667-34.137,47.333-68.273,71-102.41
			c31.391-45.277,62.781-90.555,94.172-135.832c2.095-3.022,4.19-6.044,6.285-9.066c-10.786-2.921-21.572-5.843-32.358-8.764
			c2.271,17.2,4.541,34.4,6.812,51.601c0.832,6.305,2.788,11.589,8.601,14.994c6.75,3.954,15.513,2.785,21.043-2.715
			c33.495-33.312,66.991-66.623,100.486-99.935c20.871-20.756,41.742-41.513,62.613-62.27c-2.554,1.488-5.108,2.977-7.662,4.466
			c48.696-10.634,97.393-21.268,146.089-31.902c12.518-2.733,25.035-5.467,37.553-8.2c-7.12-4.043-14.24-8.085-21.36-12.128
			c15.251,47.279,30.502,94.559,45.753,141.838c4.456,13.813,8.912,27.626,13.368,41.439c0-3.078,0-6.155,0-9.232
			c-17.12,46.737-34.24,93.475-51.36,140.212c-2.255,6.155-4.509,12.311-6.764,18.466c2.66-3.459,5.32-6.918,7.979-10.377
			c-36.744,27.469-73.488,54.938-110.233,82.407c-29.302,21.905-58.604,43.811-87.905,65.716c-5.063,3.786-8.6,8.333-8.6,14.994
			c0,8.044,5.362,14.274,12.748,16.744c26.173,8.751,52.347,17.502,78.52,26.253c0-11.163,0-22.325,0-33.488
			c-30.29,9.819-60.58,19.64-90.87,29.459c-60.824,19.72-121.649,39.438-182.474,59.157c-46.29,15.007-92.579,30.014-138.869,45.021
			c-4.02,1.303-8.04,2.606-12.06,3.909c-5.787,1.877-9.176,5.177-13.065,9.387c-19.1,20.679-38.2,41.358-57.3,62.037
			c-12.21,13.22-24.42,26.438-36.63,39.658c-6.417,6.947-6.889,17.668,0,24.557C139.212,889.77,150.855,890.232,157.279,883.278
			L157.279,883.278z"/>
	</g>
</g>
<path fill="#FFFFFF" stroke="#000000" stroke-width="3.4729" stroke-miterlimit="10" d="M524.082,200.991"/>
</svg>
