<?xml version="1.0" encoding="utf-8"?>
<!-- Generator: Adobe Illustrator 16.0.0, SVG Export Plug-In . SVG Version: 6.00 Build 0)  -->
<!DOCTYPE svg PUBLIC "-//W3C//DTD SVG 1.1//EN" "http://www.w3.org/Graphics/SVG/1.1/DTD/svg11.dtd">
<svg version="1.1" id="Capa_1" xmlns="http://www.w3.org/2000/svg" xmlns:xlink="http://www.w3.org/1999/xlink" x="0px" y="0px"
	 width="1000px" height="1000px" viewBox="0 0 1000 1000" enable-background="new 0 0 1000 1000" xml:space="preserve">
<path fill="#D7D7D7" d="M840,904c0,6.627-5.373,12-12,12H261c-6.627,0-12-5.373-12-12V171c0-6.627,5.373-12,12-12h567
	c6.627,0,12,5.373,12,12V904z"/>
<path fill="#D7D7D7" d="M758,845c0,6.627-5.373,12-12,12H179c-6.627,0-12-5.373-12-12V112c0-6.627,5.373-12,12-12h567
	c6.627,0,12,5.373,12,12V845z"/>
</svg>
