<?xml version="1.0" encoding="utf-8"?>
<svg version="1.1" id="Capa_1" xmlns="http://www.w3.org/2000/svg" xmlns:xlink="http://www.w3.org/1999/xlink" x="0px" y="0px"
	 width="1000px" height="1000px" viewBox="0 0 1000 1000" enable-background="new 0 0 1000 1000" xml:space="preserve">
<g>
	<path fill="#D7D7D7" d="M252,910c0,13.255-10.745,24-24,24H83c-13.255,0-24-10.745-24-24V89c0-13.255,10.745-24,24-24h145
		c13.255,0,24,10.745,24,24V910z"/>
</g>
<g>
	<path fill="#D7D7D7" d="M482,910c0,13.255-10.745,24-24,24H313c-13.255,0-24-10.745-24-24V89c0-13.255,10.745-24,24-24h145
		c13.255,0,24,10.745,24,24V910z"/>
</g>
<g>
	<path fill="#D7D7D7" d="M712,910c0,13.255-10.745,24-24,24H543c-13.255,0-24-10.745-24-24V89c0-13.255,10.745-24,24-24h145
		c13.255,0,24,10.745,24,24V910z"/>
</g>
<g>
	<path fill="#D7D7D7" d="M942,910c0,13.255-10.745,24-24,24H773c-13.255,0-24-10.745-24-24V89c0-13.255,10.745-24,24-24h145
		c13.255,0,24,10.745,24,24V910z"/>
</g>
</svg>
